<svg width="51" height="53" viewBox="0 0 51 53" fill="none" xmlns="http://www.w3.org/2000/svg">
<path d="M22.8763 11.0079C22.9504 11.0848 23.0092 11.1761 23.0493 11.2767C23.0894 11.3772 23.11 11.4849 23.11 11.5938C23.11 11.7026 23.0894 11.8104 23.0493 11.9109C23.0092 12.0114 22.9504 12.1028 22.8763 12.1797L9.8932 25.6719L43.0312 25.6719C43.2426 25.6719 43.4453 25.7591 43.5947 25.9145C43.7442 26.0698 43.8281 26.2804 43.8281 26.5C43.8281 26.7197 43.7442 26.9303 43.5947 27.0856C43.4453 27.2409 43.2426 27.3282 43.0312 27.3282L9.8932 27.3282L22.8763 40.8204C22.9503 40.8973 23.0091 40.9887 23.0491 41.0892C23.0892 41.1897 23.1098 41.2975 23.1098 41.4063C23.1098 41.5151 23.0892 41.6228 23.0491 41.7234C23.0091 41.8239 22.9503 41.9152 22.8763 41.9922C22.8023 42.0691 22.7144 42.1302 22.6176 42.1718C22.5209 42.2134 22.4172 42.2349 22.3125 42.2349C22.2078 42.2349 22.1041 42.2134 22.0074 42.1718C21.9106 42.1302 21.8227 42.0691 21.7487 41.9922L7.40496 27.0859C7.33087 27.009 7.2721 26.9177 7.23199 26.8172C7.19189 26.7166 7.17125 26.6089 7.17125 26.5C7.17125 26.3912 7.19189 26.2834 7.23199 26.1829C7.2721 26.0824 7.33087 25.991 7.40496 25.9141L21.7487 11.0079C21.8227 10.9309 21.9106 10.8698 22.0073 10.8281C22.1041 10.7865 22.2078 10.765 22.3125 10.765C22.4172 10.765 22.5209 10.7865 22.6177 10.8281C22.7144 10.8698 22.8023 10.9309 22.8763 11.0079Z" fill="black"/>
</svg>
