<svg width="51" height="53" viewBox="0 0 51 53" fill="none" xmlns="http://www.w3.org/2000/svg">
<path d="M28.1237 41.9921C28.0496 41.9152 27.9909 41.8239 27.9508 41.7233C27.9107 41.6228 27.89 41.5151 27.89 41.4062C27.89 41.2974 27.9107 41.1896 27.9508 41.0891C27.9909 40.9886 28.0496 40.8972 28.1237 40.8203L41.1068 27.3281L7.96877 27.3281C7.75742 27.3281 7.55473 27.2409 7.40529 27.0855C7.25584 26.9302 7.17189 26.7196 7.17189 26.5C7.17189 26.2803 7.25584 26.0697 7.40529 25.9144C7.55473 25.7591 7.75742 25.6718 7.96877 25.6718L41.1068 25.6718L28.1237 12.1796C28.0497 12.1027 27.991 12.0113 27.9509 11.9108C27.9108 11.8103 27.8902 11.7025 27.8902 11.5937C27.8902 11.4849 27.9108 11.3772 27.9509 11.2766C27.991 11.1761 28.0497 11.0848 28.1237 11.0078C28.1978 10.9309 28.2857 10.8698 28.3824 10.8282C28.4791 10.7866 28.5828 10.7651 28.6875 10.7651C28.7922 10.7651 28.8959 10.7866 28.9926 10.8282C29.0894 10.8698 29.1773 10.9309 29.2513 11.0078L43.5951 25.9141C43.6691 25.991 43.7279 26.0823 43.768 26.1828C43.8081 26.2834 43.8288 26.3911 43.8288 26.5C43.8288 26.6088 43.8081 26.7166 43.768 26.8171C43.7279 26.9176 43.6691 27.009 43.5951 27.0859L29.2513 41.9921C29.1773 42.0691 29.0894 42.1302 28.9927 42.1719C28.8959 42.2135 28.7922 42.235 28.6875 42.235C28.5828 42.235 28.4791 42.2135 28.3824 42.1719C28.2856 42.1302 28.1977 42.0691 28.1237 41.9921Z" fill="black"/>
</svg>
