<svg width="49" height="49" viewBox="0 0 49 49" fill="none" xmlns="http://www.w3.org/2000/svg">
<path d="M42.875 8.16664H4.08331V12.25H8.77915L15.4758 30.625C15.897 31.8164 16.6765 32.8484 17.7072 33.5794C18.738 34.3104 19.9696 34.7048 21.2333 34.7083H38.7916V30.625H21.2333C20.8137 30.6248 20.4044 30.4953 20.061 30.2542C19.7176 30.0131 19.4568 29.6721 19.3141 29.2775L18.375 26.5416H37.3216C38.2078 26.5404 39.0695 26.2509 39.7766 25.7168C40.4837 25.1828 40.998 24.4332 41.2416 23.5812L44.9166 10.7596C44.9996 10.4915 45.0265 10.2091 44.9954 9.93018C44.9644 9.65124 44.8762 9.3817 44.7364 9.13838C44.5965 8.89505 44.408 8.68318 44.1826 8.51598C43.9571 8.34879 43.6997 8.22987 43.4262 8.16664C43.2437 8.13692 43.0575 8.13692 42.875 8.16664ZM37.2604 22.4583H16.8437L13.1279 12.25H40.1596L37.2604 22.4583Z" fill="black"/>
<path d="M21.4375 42.875C23.1289 42.875 24.5 41.5039 24.5 39.8125C24.5 38.1211 23.1289 36.75 21.4375 36.75C19.7461 36.75 18.375 38.1211 18.375 39.8125C18.375 41.5039 19.7461 42.875 21.4375 42.875Z" fill="black"/>
<path d="M33.6875 42.875C35.3789 42.875 36.75 41.5039 36.75 39.8125C36.75 38.1211 35.3789 36.75 33.6875 36.75C31.9961 36.75 30.625 38.1211 30.625 39.8125C30.625 41.5039 31.9961 42.875 33.6875 42.875Z" fill="black"/>
</svg>
