<svg width="233" height="110" viewBox="0 0 233 110" fill="none" xmlns="http://www.w3.org/2000/svg">
<path d="M20.8333 55.0001C20.8333 56.2157 21.3821 57.3814 22.3588 58.241C23.3356 59.1005 24.6603 59.5834 26.0417 59.5834C27.423 59.5834 28.7478 59.1005 29.7245 58.241C30.7013 57.3814 31.25 56.2157 31.25 55.0001C31.25 53.7845 30.7013 52.6187 29.7245 51.7592C28.7478 50.8996 27.423 50.4167 26.0417 50.4167C24.6603 50.4167 23.3356 50.8996 22.3588 51.7592C21.3821 52.6187 20.8333 53.7845 20.8333 55.0001ZM57.2917 55.0001C57.2917 56.2157 57.8404 57.3814 58.8172 58.241C59.7939 59.1005 61.1187 59.5834 62.5 59.5834C63.8813 59.5834 65.2061 59.1005 66.1829 58.241C67.1596 57.3814 67.7083 56.2157 67.7083 55.0001C67.7083 53.7845 67.1596 52.6187 66.1829 51.7592C65.2061 50.8996 63.8813 50.4167 62.5 50.4167C61.1187 50.4167 59.7939 50.8996 58.8172 51.7592C57.8404 52.6187 57.2917 53.7845 57.2917 55.0001ZM93.75 55.0001C93.75 56.2157 94.2987 57.3814 95.2755 58.241C96.2522 59.1005 97.577 59.5834 98.9583 59.5834C100.34 59.5834 101.664 59.1005 102.641 58.241C103.618 57.3814 104.167 56.2157 104.167 55.0001C104.167 53.7845 103.618 52.6187 102.641 51.7592C101.664 50.8996 100.34 50.4167 98.9583 50.4167C97.577 50.4167 96.2522 50.8996 95.2755 51.7592C94.2987 52.6187 93.75 53.7845 93.75 55.0001Z" stroke="black" stroke-width="2" stroke-linecap="round" stroke-linejoin="round"/>
<path d="M128 55.0001C128 56.2157 128.553 57.3814 129.538 58.241C130.522 59.1005 131.858 59.5834 133.25 59.5834C134.642 59.5834 135.978 59.1005 136.962 58.241C137.947 57.3814 138.5 56.2157 138.5 55.0001C138.5 53.7845 137.947 52.6187 136.962 51.7592C135.978 50.8996 134.642 50.4167 133.25 50.4167C131.858 50.4167 130.522 50.8996 129.538 51.7592C128.553 52.6187 128 53.7845 128 55.0001ZM164.75 55.0001C164.75 56.2157 165.303 57.3814 166.288 58.241C167.272 59.1005 168.608 59.5834 170 59.5834C171.392 59.5834 172.728 59.1005 173.712 58.241C174.697 57.3814 175.25 56.2157 175.25 55.0001C175.25 53.7845 174.697 52.6187 173.712 51.7592C172.728 50.8996 171.392 50.4167 170 50.4167C168.608 50.4167 167.272 50.8996 166.288 51.7592C165.303 52.6187 164.75 53.7845 164.75 55.0001ZM201.5 55.0001C201.5 56.2157 202.053 57.3814 203.038 58.241C204.022 59.1005 205.358 59.5834 206.75 59.5834C208.142 59.5834 209.478 59.1005 210.462 58.241C211.447 57.3814 212 56.2157 212 55.0001C212 53.7845 211.447 52.6187 210.462 51.7592C209.478 50.8996 208.142 50.4167 206.75 50.4167C205.358 50.4167 204.022 50.8996 203.038 51.7592C202.053 52.6187 201.5 53.7845 201.5 55.0001Z" stroke="black" stroke-width="2" stroke-linecap="round" stroke-linejoin="round"/>
</svg>
