<svg width="170" height="134" viewBox="0 0 170 134" fill="none" xmlns="http://www.w3.org/2000/svg">
<path d="M25.5 46.9C25.5 43.3461 27.2911 39.9378 30.4792 37.4248C33.6673 34.9118 37.9913 33.5 42.5 33.5H127.5C132.009 33.5 136.333 34.9118 139.521 37.4248C142.709 39.9378 144.5 43.3461 144.5 46.9V80.4C144.5 83.9539 142.709 87.3622 139.521 89.8752C136.333 92.3882 132.009 93.8 127.5 93.8H42.5C37.9913 93.8 33.6673 92.3882 30.4792 89.8752C27.2911 87.3622 25.5 83.9539 25.5 80.4V46.9ZM42.5 40.2C40.2457 40.2 38.0837 40.9059 36.4896 42.1624C34.8955 43.4189 34 45.123 34 46.9V80.4C34 82.1769 34.8955 83.8811 36.4896 85.1376C38.0837 86.3941 40.2457 87.1 42.5 87.1H127.5C129.754 87.1 131.916 86.3941 133.51 85.1376C135.104 83.8811 136 82.1769 136 80.4V46.9C136 45.123 135.104 43.4189 133.51 42.1624C131.916 40.9059 129.754 40.2 127.5 40.2H42.5ZM17 103.85C17 102.962 17.4478 102.109 18.2448 101.481C19.0418 100.853 20.1228 100.5 21.25 100.5H148.75C149.877 100.5 150.958 100.853 151.755 101.481C152.552 102.109 153 102.962 153 103.85C153 104.738 152.552 105.591 151.755 106.219C150.958 106.847 149.877 107.2 148.75 107.2H21.25C20.1228 107.2 19.0418 106.847 18.2448 106.219C17.4478 105.591 17 104.738 17 103.85Z" fill="black"/>
</svg>
