<svg width="170" height="160" viewBox="0 0 170 160" fill="none" xmlns="http://www.w3.org/2000/svg">
<path d="M163.074 73.6125L153.777 51.7375C153.092 50.1103 151.902 48.7151 150.362 47.734C148.822 46.7528 147.004 46.2313 145.144 46.2375H120.859V40C120.859 39.0054 120.44 38.0516 119.692 37.3483C118.945 36.6451 117.932 36.25 116.875 36.25H15.9375C13.4718 36.25 11.1071 37.1719 9.36362 38.8128C7.62011 40.4538 6.64063 42.6794 6.64062 45V115C6.64062 117.321 7.62011 119.546 9.36362 121.187C11.1071 122.828 13.4718 123.75 15.9375 123.75H28.2891C29.2035 127.989 31.6468 131.799 35.2049 134.536C38.763 137.274 43.2171 138.769 47.8125 138.769C52.4079 138.769 56.862 137.274 60.4201 134.536C63.9782 131.799 66.4215 127.989 67.3359 123.75H102.664C103.579 127.989 106.022 131.799 109.58 134.536C113.138 137.274 117.592 138.769 122.188 138.769C126.783 138.769 131.237 137.274 134.795 134.536C138.353 131.799 140.796 127.989 141.711 123.75H154.062C156.528 123.75 158.893 122.828 160.636 121.187C162.38 119.546 163.359 117.321 163.359 115V75C163.358 74.5246 163.262 74.0538 163.074 73.6125ZM120.859 53.75H145.151C145.417 53.7498 145.677 53.8247 145.897 53.9651C146.117 54.1055 146.288 54.3049 146.386 54.5375L153.491 71.25H120.859V53.75ZM14.6094 45C14.6094 44.6685 14.7493 44.3505 14.9984 44.1161C15.2474 43.8817 15.5853 43.75 15.9375 43.75H112.891V86.25H14.6094V45ZM47.8125 131.25C45.4484 131.25 43.1374 130.59 41.1717 129.354C39.206 128.118 37.674 126.361 36.7693 124.305C35.8645 122.25 35.6278 119.988 36.0891 117.805C36.5503 115.623 37.6887 113.618 39.3604 112.045C41.032 110.472 43.1619 109.4 45.4806 108.966C47.7992 108.532 50.2026 108.755 52.3868 109.606C54.5709 110.458 56.4377 111.9 57.7512 113.75C59.0646 115.6 59.7656 117.775 59.7656 120C59.7656 122.984 58.5063 125.845 56.2646 127.955C54.023 130.065 50.9827 131.25 47.8125 131.25ZM102.664 116.25H67.3359C66.4215 112.011 63.9782 108.201 60.4201 105.464C56.862 102.726 52.4079 101.231 47.8125 101.231C43.2171 101.231 38.763 102.726 35.2049 105.464C31.6468 108.201 29.2035 112.011 28.2891 116.25H15.9375C15.5853 116.25 15.2474 116.118 14.9984 115.884C14.7493 115.649 14.6094 115.332 14.6094 115V93.75H112.891V103.425C110.287 104.722 108.021 106.544 106.253 108.761C104.485 110.978 103.259 113.535 102.664 116.25ZM122.188 131.25C119.823 131.25 117.512 130.59 115.547 129.354C113.581 128.118 112.049 126.361 111.144 124.305C110.24 122.25 110.003 119.988 110.464 117.805C110.925 115.623 112.064 113.618 113.735 112.045C115.407 110.472 117.537 109.4 119.856 108.966C122.174 108.532 124.578 108.755 126.762 109.606C128.946 110.458 130.813 111.9 132.126 113.75C133.44 115.6 134.141 117.775 134.141 120C134.141 122.984 132.881 125.845 130.64 127.955C128.398 130.065 125.358 131.25 122.188 131.25ZM155.391 115C155.391 115.332 155.251 115.649 155.002 115.884C154.753 116.118 154.415 116.25 154.062 116.25H141.711C140.787 112.018 138.34 108.215 134.784 105.482C131.227 102.75 126.778 101.255 122.188 101.25C121.743 101.25 121.298 101.25 120.859 101.294V78.75H155.391V115Z" fill="black"/>
</svg>
