<svg width="170" height="150" viewBox="0 0 170 150" fill="none" xmlns="http://www.w3.org/2000/svg">
<path d="M116.875 50H102.099L111.258 41.9188C111.916 41.3385 112.437 40.6496 112.793 39.8914C113.149 39.1333 113.332 38.3207 113.332 37.5C113.332 36.6794 113.149 35.8668 112.793 35.1086C112.437 34.3505 111.916 33.6616 111.258 33.0813C110.6 32.501 109.82 32.0407 108.96 31.7267C108.101 31.4126 107.18 31.251 106.25 31.251C105.32 31.251 104.399 31.4126 103.54 31.7267C102.68 32.0407 101.9 32.501 101.242 33.0813L74.9842 56.25L101.242 79.4188C101.898 80.0012 102.679 80.4634 103.538 80.7788C104.398 81.0941 105.319 81.2565 106.25 81.2565C107.181 81.2565 108.102 81.0941 108.962 80.7788C109.821 80.4634 110.602 80.0012 111.258 79.4188C111.916 78.8389 112.439 78.1501 112.795 77.3919C113.151 76.6337 113.335 75.8209 113.335 75C113.335 74.1792 113.151 73.3664 112.795 72.6082C112.439 71.85 111.916 71.1612 111.258 70.5813L102.099 62.5H116.875C126.643 62.5 134.583 70.9125 134.583 81.25C134.583 91.5875 125.049 100 113.333 100H56.6667C44.9508 100 35.4167 91.5875 35.4167 81.25C35.4167 70.9125 44.9508 62.5 56.6667 62.5C58.5453 62.5 60.347 61.8416 61.6753 60.6695C63.0037 59.4973 63.75 57.9076 63.75 56.25C63.75 54.5924 63.0037 53.0027 61.6753 51.8306C60.347 50.6585 58.5453 50 56.6667 50C37.1379 50 21.25 64.0188 21.25 81.25C21.25 98.4813 37.1379 112.5 56.6667 112.5H113.333C132.862 112.5 148.75 98.4813 148.75 81.25C148.75 64.0188 134.449 50 116.875 50Z" fill="black"/>
</svg>
