<svg width="170" height="122" viewBox="0 0 170 122" fill="none" xmlns="http://www.w3.org/2000/svg">
<path d="M76.5 39.65C76.4989 35.0624 78.1 30.5477 81.157 26.5186C84.214 22.4895 88.6294 19.0745 93.9996 16.5857C99.3698 14.0969 105.524 12.6137 111.898 12.2717C118.273 11.9297 124.666 12.7397 130.492 14.6278C131.118 14.8308 131.667 15.1399 132.09 15.5284C132.514 15.917 132.8 16.3734 132.923 16.8586C133.047 17.3439 133.005 17.8434 132.801 18.3143C132.596 18.7853 132.236 19.2137 131.75 19.5627L112.259 33.55L123.25 41.4373L142.74 27.45C143.226 27.1013 143.823 26.8422 144.478 26.6951C145.134 26.548 145.83 26.5172 146.506 26.6054C147.182 26.6935 147.818 26.898 148.36 27.2013C148.902 27.5046 149.333 27.8976 149.617 28.3467C152.584 33.0547 153.639 38.2681 152.66 43.3873C151.682 48.5064 148.71 53.3235 144.087 57.2845C139.463 61.2454 133.376 64.1895 126.525 65.7781C119.673 67.3666 112.336 67.5352 105.358 66.2643L51.255 105.597C47.5432 108.326 42.4727 109.886 37.1589 109.932C31.8451 109.978 26.7233 108.508 22.9203 105.844C19.1172 103.18 16.9444 99.5416 16.8798 95.7282C16.8152 91.9147 18.8642 88.2391 22.576 85.5098L77.197 44.896C76.7318 43.1673 76.4984 41.4106 76.5 39.65ZM114.75 18.3C110.201 18.2991 105.712 19.0469 101.628 20.4859C97.5448 21.925 93.9756 24.0169 91.1951 26.6009C88.4146 29.1848 86.4969 32.192 85.5894 35.3912C84.6819 38.5903 84.8089 41.8962 85.9605 45.0546C86.1427 45.5606 86.1406 46.0916 85.9546 46.5969C85.7685 47.1021 85.4047 47.5646 84.898 47.9399L28.696 89.7493C26.5589 91.3202 25.3789 93.436 25.4155 95.6313C25.4522 97.8266 26.7025 99.9215 28.8915 101.455C31.0805 102.989 34.0287 103.836 37.0877 103.809C40.1467 103.783 43.0659 102.886 45.203 101.315L101.082 60.6889C101.637 60.2846 102.339 59.9997 103.108 59.866C103.877 59.7324 104.682 59.7554 105.434 59.9325C110.399 61.1071 115.707 61.3222 120.824 60.5561C125.941 59.79 130.687 58.0699 134.583 55.5688C138.479 53.0678 141.388 49.8742 143.017 46.3096C144.646 42.745 144.938 38.9353 143.862 35.2641L126.25 47.9094C125.454 48.4812 124.373 48.8024 123.246 48.8024C122.119 48.8024 121.038 48.4812 120.241 47.9094L103.241 35.7094C102.845 35.4261 102.531 35.0895 102.317 34.719C102.103 34.3484 101.992 33.9512 101.992 33.55C101.992 33.1488 102.103 32.7516 102.317 32.381C102.531 32.0105 102.845 31.6739 103.241 31.3906L120.861 18.7514C118.849 18.4503 116.798 18.2991 114.742 18.3" fill="black"/>
</svg>
