<svg width="49" height="49" viewBox="0 0 49 49" fill="none" xmlns="http://www.w3.org/2000/svg">
<path d="M30.821 12.054C29.5929 10.8031 28.1291 9.80792 26.5142 9.12592C24.8993 8.44392 23.1652 8.08864 21.4122 8.08058C19.6592 8.07253 17.922 8.41186 16.3009 9.07899C14.6798 9.74612 13.2069 10.7278 11.9674 11.9674C10.7278 13.2069 9.7461 14.6798 9.07898 16.3009C8.41185 17.922 8.07252 19.6593 8.08057 21.4123C8.08863 23.1652 8.44391 24.8993 9.12591 26.5142C9.8079 28.1291 10.8031 29.5929 12.054 30.821C14.5505 33.272 17.9138 34.638 21.4122 34.622C24.9107 34.6059 28.2613 33.209 30.7352 30.7352C33.209 28.2613 34.6059 24.9107 34.622 21.4123C34.638 17.9138 33.272 14.5505 30.821 12.054ZM9.16708 9.16709C12.2966 6.03837 16.5031 4.22335 20.9264 4.09321C25.3498 3.96306 29.6557 5.52762 32.9638 8.46695C36.2718 11.4063 38.332 15.4983 38.7231 19.9062C39.1142 24.3141 37.8066 28.705 35.0677 32.1808L45.9804 43.0935L43.0935 45.9804L32.1808 35.0677C28.7038 37.7965 24.3168 39.0959 19.9145 38.701C15.5123 38.3061 11.4266 36.2466 8.49084 32.9425C5.55507 29.6385 3.99043 25.3389 4.11609 20.9208C4.24176 16.5027 6.04826 12.2989 9.16708 9.16709Z" fill="black"/>
</svg>
