<svg width="50" height="50" viewBox="0 0 50 50" fill="none" xmlns="http://www.w3.org/2000/svg">
<g clip-path="url(#clip0_14_154)">
<path d="M50 6.08864C48.1277 7.10461 46.1417 7.7715 44.1082 8.06711C46.2264 6.51209 47.8527 4.04965 48.6186 1.11568C46.605 2.57928 44.402 3.61048 42.1047 4.16472C40.2334 1.72285 37.5676 0.196777 34.617 0.196777C28.9518 0.196777 24.3586 5.82262 24.3586 12.7614C24.3586 13.7463 24.4494 14.7052 24.6242 15.625C16.0988 15.1008 8.54023 10.0987 3.48066 2.49678C2.59785 4.35252 2.09199 6.51113 2.09199 8.81352C2.09199 13.1729 3.90313 17.0185 6.65547 19.2719C5.02646 19.2094 3.4333 18.6705 2.00898 17.7001C2.0084 17.7528 2.0084 17.8054 2.0084 17.8583C2.0084 23.9461 5.54434 29.0245 10.2369 30.1788C8.72634 30.682 7.14185 30.7557 5.60449 30.3941C6.90977 35.386 10.6982 39.0186 15.1869 39.1202C11.6762 42.4901 7.25293 44.4989 2.44707 44.4989C1.61895 44.4989 0.802539 44.4394 0 44.3233C4.53965 47.8884 9.93164 49.9685 15.7246 49.9685C34.5932 49.9685 44.9109 30.8224 44.9109 14.2185C44.9109 13.6736 44.9012 13.1317 44.8813 12.593C46.8895 10.8147 48.6229 8.61212 50 6.08864Z" fill="#55ACEE"/>
</g>
<defs>
<clipPath id="clip0_14_154">
<rect width="50" height="50" fill="white"/>
</clipPath>
</defs>
</svg>
